<svg width="21" height="21" viewBox="0 0 21 21" fill="none" xmlns="http://www.w3.org/2000/svg">
<g clip-path="url(#clip0_191_73)">
<path fill-rule="evenodd" clip-rule="evenodd" d="M16.1389 1.41667H4.80555L4.8055 17.6733H9.05555V15.2698H11.8889V17.6733H16.1388L16.1389 1.41667ZM16.1389 0L3.38889 4.27779e-06V1.41667L3.38883 17.6733V19.0899L4.8055 19.09L1.5 19.09V21H19.4444V19.09L4.8055 19.09L17.5555 19.0899V17.6733L17.5556 1.41667V4.27779e-06L16.1389 0ZM7.16667 4.76455H9.05555V6.6746H7.16667V4.76455ZM13.7778 4.76455H11.8889V6.6746H13.7778V4.76455ZM7.16667 8.58467H9.05555V10.4947H7.16667V8.58467ZM9.05555 12.4048H7.16667V14.3148H9.05555V12.4048ZM11.8889 8.58467H13.7778V10.4947H11.8889V8.58467ZM13.7778 12.4048H11.8889V14.3148H13.7778V12.4048Z" fill="white"/>
</g>
<defs>
<clipPath id="clip0_191_73">
<rect width="21" height="21" fill="white"/>
</clipPath>
</defs>
</svg>
