<svg width="11" height="11" viewBox="0 0 11 11" fill="none" xmlns="http://www.w3.org/2000/svg">
<path d="M10.9933 10.7218C10.9687 10.6149 10.8835 10.5523 10.7483 10.545C10.6899 10.5418 10.6311 10.5434 10.5726 10.5434C10.3864 10.5431 10.1998 10.5434 10.005 10.5434C10.005 10.4831 10.005 10.4374 10.005 10.3913C10.005 7.04048 10.005 3.68963 10.005 0.339041C10.0047 0.0683464 9.93098 0 9.64012 0C6.88079 0 4.12117 0 1.36155 0C1.07069 0 0.996948 0.0683464 0.996948 0.338772C0.996948 3.69313 0.996948 7.04748 0.996948 10.4018C0.996948 10.4465 0.996948 10.4912 0.996948 10.5434C0.744871 10.5434 0.510716 10.5412 0.276855 10.5442C0.112329 10.5463 0.0142017 10.6241 0.00156845 10.7533C-0.00900819 10.8625 0.0479882 10.9338 0.199587 11C3.73395 11 7.26831 11 10.8027 11C10.8165 10.9938 10.8306 10.9876 10.8444 10.9812C10.9692 10.9241 11.0198 10.8361 10.9933 10.7218ZM7.50981 5.03557C7.50981 4.73474 7.50981 4.4366 7.50981 4.12877C7.84238 4.12877 8.16556 4.12877 8.49608 4.12877C8.49608 4.43094 8.49608 4.72935 8.49608 5.03557C8.17026 5.03557 7.84444 5.03557 7.50981 5.03557ZM7.50893 6.42321C7.84003 6.42321 8.16321 6.42321 8.4949 6.42321C8.4949 6.72189 8.4949 7.01977 8.4949 7.3249C8.1682 7.3249 7.84238 7.3249 7.50893 7.3249C7.50893 7.02703 7.50893 6.73185 7.50893 6.42321ZM8.49784 2.74462C8.16644 2.74462 7.84062 2.74462 7.50834 2.74462C7.50834 2.44137 7.50834 2.14349 7.50834 1.83863C7.84121 1.83863 8.16644 1.83863 8.49784 1.83863C8.49784 2.14269 8.49784 2.4411 8.49784 2.74462ZM9.002 2.92302C9.00346 2.71206 9.00229 2.5011 9.00229 2.28987C9.00229 2.18439 9.00258 2.07891 9.00288 1.97343C9.00288 2.07891 9.00258 2.18439 9.00258 2.28987C9.00229 2.5011 9.00346 2.71206 9.002 2.92302ZM9.00229 6.87177C9.00229 6.76629 9.00258 6.66081 9.00288 6.55506C9.00258 6.66054 9.00229 6.76629 9.00229 6.87177C9.00229 6.97913 9.00258 7.0865 9.00288 7.19386C9.00258 7.08623 9.00229 6.97913 9.00229 6.87177ZM5.00726 4.13119C5.33484 4.13119 5.65713 4.13119 5.98942 4.13119C5.98942 4.43068 5.98942 4.73097 5.98942 5.03718C5.66183 5.03718 5.33983 5.03718 5.00726 5.03718C5.00726 4.72855 5.00726 4.4331 5.00726 4.13119ZM5.01225 6.42564C5.33455 6.42564 5.65655 6.42564 5.99324 6.42564C5.99324 6.72647 5.99324 7.02165 5.99324 7.3241C5.66683 7.3241 5.34453 7.3241 5.01225 7.3241C5.01225 7.02865 5.01225 6.73104 5.01225 6.42564ZM5.99235 2.74435C5.66507 2.74435 5.34277 2.74435 5.01137 2.74435C5.01137 2.44567 5.01137 2.14753 5.01137 1.83809C5.3413 1.83809 5.6633 1.83809 5.99235 1.83809C5.99235 2.14242 5.99235 2.44056 5.99235 2.74435ZM1.99997 3.94229C1.99791 4.15675 1.99938 4.37148 1.99938 4.58593C1.99938 4.79689 1.99791 5.00785 1.99967 5.21908C1.99791 5.00812 1.99938 4.79716 1.99938 4.58593C1.99967 4.37148 1.99791 4.15675 1.99997 3.94229ZM3.00122 3.2069C3.23156 3.2069 3.46189 3.20824 3.69252 3.20663C3.46189 3.20797 3.23156 3.2069 3.00122 3.2069C2.76707 3.2069 2.53262 3.20824 2.29846 3.20636C2.53262 3.20824 2.76677 3.20663 3.00122 3.2069ZM2.50412 2.74462C2.50412 2.44163 2.50412 2.14322 2.50412 1.83836C2.83435 1.83836 3.15987 1.83836 3.49303 1.83836C3.49303 2.14296 3.49303 2.44083 3.49303 2.74462C3.16163 2.74462 2.83611 2.74462 2.50412 2.74462ZM2.50236 5.03503C2.50236 4.73043 2.50236 4.43444 2.50236 4.13173C2.83229 4.13173 3.15811 4.13173 3.49245 4.13173C3.49245 4.43014 3.49245 4.72855 3.49245 5.03503C3.16398 5.03503 2.83875 5.03503 2.50236 5.03503ZM2.50529 6.42537C2.83699 6.42537 3.16251 6.42537 3.4945 6.42537C3.4945 6.72728 3.4945 7.02219 3.4945 7.32463C3.1634 7.32463 2.83787 7.32463 2.50529 7.32463C2.50529 7.02434 2.50529 6.72647 2.50529 6.42537ZM3.99954 6.882C3.99954 6.77463 3.99983 6.66727 3.99983 6.55991C3.99983 6.66727 3.99954 6.77463 3.99954 6.882C3.99954 6.98748 3.99983 7.09296 3.99983 7.1987C3.99983 7.09296 3.99954 6.98748 3.99954 6.882ZM6.49533 10.5348C5.83429 10.5348 5.17648 10.5348 4.50428 10.5348C4.50428 9.92718 4.50428 9.32713 4.50428 8.71686C5.16591 8.71686 5.82665 8.71686 6.49533 8.71686C6.49533 9.32148 6.49533 9.92395 6.49533 10.5348Z" fill="white"/>
</svg>
