<svg width="8" height="8" viewBox="0 0 8 8" fill="none" xmlns="http://www.w3.org/2000/svg">
<path d="M4.70428 4.04707L7.63855 6.98134C7.82634 7.16914 7.82634 7.49778 7.63855 7.68557C7.45076 7.87336 7.12212 7.87336 6.93432 7.68557L4.00005 4.7513L1.06577 7.68557C0.877981 7.87336 0.549342 7.87336 0.361548 7.68557C0.173755 7.49778 0.173755 7.16914 0.361548 6.98134L3.29582 4.04707L0.361548 1.13627C0.173755 0.948475 0.173755 0.619836 0.361548 0.432043C0.455445 0.338146 0.59629 0.291197 0.713661 0.291197C0.831032 0.291197 0.971878 0.338146 1.06577 0.432043L4.00005 3.36632L6.93432 0.432043C7.02822 0.338146 7.16907 0.291197 7.28644 0.291197C7.40381 0.291197 7.54465 0.338146 7.63855 0.432043C7.82634 0.619836 7.82634 0.948475 7.63855 1.13627L4.70428 4.04707Z" fill="black"/>
</svg>
