<svg width="1024" height="1024" viewBox="0 0 1024 1024" fill="none" xmlns="http://www.w3.org/2000/svg">
<path fillRule="evenodd" clipRule="evenodd" d="M311.531 221.376C331.761 221.376 348.161 205.174 348.161 185.188C348.161 165.202 331.761 149 311.531 149C291.301 149 274.901 165.202 274.901 185.188C274.901 205.174 291.301 221.376 311.531 221.376ZM635.799 539.623H635.885V539.624C645.014 539.632 653.771 536.053 660.226 529.676C666.681 523.299 670.304 514.648 670.296 505.629V505.544C670.3 498.051 667.776 490.77 663.122 484.853C660.84 481.944 658.101 479.416 655.009 477.364C651.834 475.255 648.332 473.67 644.642 472.67C602.796 461.255 573.813 423.644 573.813 380.756C573.813 337.868 602.796 300.257 644.642 288.842C648.332 287.843 651.834 286.258 655.009 284.149C658.101 282.097 660.84 279.569 663.122 276.66C667.776 270.743 670.3 263.462 670.296 255.969V255.883C670.304 246.865 666.681 238.214 660.226 231.837C653.772 225.46 645.015 221.881 635.886 221.889H635.8C628.215 221.885 620.846 224.379 614.856 228.977C611.912 231.23 609.353 233.936 607.276 236.99C605.141 240.128 603.537 243.587 602.524 247.232C590.917 288.538 552.879 317.146 509.488 317.206C466.1 317.137 428.067 288.532 416.451 247.232C415.44 243.587 413.835 240.128 411.701 236.99C409.624 233.936 407.064 231.23 404.12 228.977C398.131 224.379 390.761 221.885 383.177 221.889H383.09C373.961 221.881 365.204 225.46 358.75 231.836C352.295 238.213 348.672 246.864 348.68 255.883V255.968C348.676 263.462 351.2 270.742 355.854 276.659C358.135 279.568 360.874 282.096 363.966 284.148C367.141 286.257 370.643 287.842 374.333 288.842C416.143 300.309 445.101 337.888 445.162 380.756C445.092 423.62 416.137 461.193 374.333 472.668C370.643 473.668 367.141 475.253 363.966 477.362C360.874 479.414 358.135 481.942 355.854 484.851C351.2 490.768 348.676 498.049 348.68 505.543V505.628C348.672 514.646 352.294 523.297 358.749 529.674C365.204 536.052 373.96 539.631 383.089 539.623H383.176C390.76 539.627 398.13 537.133 404.119 532.535C407.063 530.282 409.622 527.576 411.699 524.521C413.833 521.384 415.438 517.925 416.45 514.279C428.005 472.939 466.075 444.307 509.486 444.307C552.898 444.307 590.968 472.939 602.523 514.279C603.535 517.925 605.14 521.384 607.275 524.521C609.351 527.576 611.911 530.282 614.855 532.535C620.844 537.133 628.214 539.627 635.799 539.623ZM348.161 576.326C348.161 596.312 331.761 612.514 311.531 612.514C291.301 612.514 274.901 596.312 274.901 576.326C274.901 556.34 291.301 540.138 311.531 540.138C331.761 540.138 348.161 556.34 348.161 576.326ZM707.965 221.376C728.195 221.376 744.595 205.174 744.595 185.188C744.595 165.202 728.195 149 707.965 149C687.735 149 671.335 165.202 671.335 185.188C671.335 205.174 687.735 221.376 707.965 221.376ZM744.595 576.326C744.595 596.312 728.195 612.514 707.965 612.514C687.735 612.514 671.335 596.312 671.335 576.326C671.335 556.34 687.735 540.138 707.965 540.138C728.195 540.138 744.595 556.34 744.595 576.326ZM479.804 370.5C485.474 356.978 498.831 348.162 513.646 348.162C533.866 348.185 550.251 364.373 550.274 384.349C550.274 398.986 541.35 412.181 527.662 417.782C513.975 423.383 498.22 420.287 487.744 409.937C477.268 399.588 474.134 384.023 479.804 370.5Z" fill="url(#paint0_linear_32_41)"/>
<path d="M255.466 831.966C254.374 833.989 252.658 835 250.318 835C247.822 835 246.028 833.989 244.936 831.966C243.688 829.788 243.688 827.688 244.936 825.665L271.612 781.09C277.54 771.288 280.504 760.708 280.504 749.35C280.504 737.993 277.618 727.413 271.846 717.611L248.212 677.237C246.964 675.214 246.886 673.192 247.978 671.169C249.226 669.146 251.02 668.135 253.36 668.135H253.828C256.324 668.135 258.118 669.146 259.21 671.169L286.354 718.778C288.85 723.134 292.516 725.313 297.352 725.313C302.344 725.313 306.088 723.134 308.584 718.778L335.962 671.169C337.054 669.146 338.77 668.135 341.11 668.135H341.578C343.918 668.135 345.634 669.146 346.726 671.169C347.974 673.192 347.974 675.214 346.726 677.237L323.092 717.378C317.32 727.335 314.434 737.993 314.434 749.35C314.59 760.864 317.632 771.444 323.56 781.09L350.47 825.665C351.562 827.688 351.562 829.788 350.47 831.966C349.222 833.989 347.428 835 345.088 835H344.62C342.28 835 340.564 833.989 339.472 831.966L308.35 779.223C306.01 775.178 302.344 773.155 297.352 773.155C292.516 773.155 288.928 775.178 286.588 779.223L255.466 831.966Z" fill="url(#paint1_linear_32_41)"/>
<path d="M425.104 783.19C433.528 783.19 440.236 779.69 445.228 772.688C450.22 765.842 451.234 758.374 448.27 750.284L425.104 684.938L401.704 750.284C398.896 758.374 399.91 765.842 404.746 772.688C409.738 779.69 416.524 783.19 425.104 783.19ZM424.636 794.392C413.092 794.392 402.562 797.737 393.046 804.428C383.531 811.118 376.823 819.908 372.923 830.799C371.987 833.6 369.959 835 366.839 835C364.655 835 362.939 834.066 361.691 832.199C360.443 830.488 360.209 828.543 360.989 826.365L417.382 673.269C418.786 669.847 421.36 668.135 425.104 668.135C428.848 668.135 431.344 669.847 432.592 673.269L488.986 826.365C489.766 828.543 489.532 830.488 488.284 832.199C487.036 834.066 485.32 835 483.136 835C480.172 835 478.144 833.6 477.052 830.799C473.152 819.908 466.444 811.118 456.928 804.428C447.412 797.737 436.882 794.392 425.338 794.392H424.636Z" fill="url(#paint2_linear_32_41)"/>
<path d="M532.022 828.699C532.022 832.9 529.916 835 525.704 835C521.492 835 519.386 832.9 519.386 828.699V676.303C519.386 673.97 520.166 672.025 521.726 670.469C523.442 668.913 525.392 668.135 527.576 668.135C530.54 668.135 532.88 669.302 534.596 671.636L610.646 785.757C613.454 789.803 617.12 791.125 621.644 789.725C626.323 788.325 628.663 785.213 628.663 780.39V674.436C628.663 670.236 630.77 668.135 634.981 668.135C639.193 668.135 641.299 670.236 641.299 674.436V826.832C641.299 829.01 640.519 830.955 638.959 832.666C637.399 834.222 635.449 835 633.109 835C630.145 835 627.883 833.755 626.323 831.266L550.04 716.911C547.388 712.866 543.722 711.543 539.042 712.944C534.362 714.344 532.022 717.456 532.022 722.279V828.699Z" fill="url(#paint3_linear_32_41)"/>
<path d="M735.884 783.19C744.308 783.19 751.016 779.69 756.008 772.688C761 765.842 762.014 758.374 759.05 750.284L735.884 684.938L712.485 750.284C709.677 758.374 710.691 765.842 715.527 772.688C720.519 779.69 727.304 783.19 735.884 783.19ZM735.416 794.392C723.872 794.392 713.343 797.737 703.827 804.428C694.311 811.118 687.603 819.908 683.703 830.799C682.767 833.6 680.739 835 677.619 835C675.435 835 673.719 834.066 672.471 832.199C671.223 830.488 670.989 828.543 671.769 826.365L728.162 673.269C729.566 669.847 732.14 668.135 735.884 668.135C739.628 668.135 742.124 669.847 743.372 673.269L799.766 826.365C800.546 828.543 800.312 830.488 799.064 832.199C797.816 834.066 796.1 835 793.916 835C790.952 835 788.924 833.6 787.832 830.799C783.932 819.908 777.224 811.118 767.708 804.428C758.192 797.737 747.662 794.392 736.118 794.392H735.416Z" fill="url(#paint4_linear_32_41)"/>
<defs>
<linearGradient id="paint0_linear_32_41" x1="154.596" y1="149" x2="154.596" y2="612.514" gradientUnits="userSpaceOnUse">
<stop stop-color="#FF008A"/>
<stop offset="1" stop-color="#73088E"/>
</linearGradient>
<linearGradient id="paint1_linear_32_41" x1="-209.873" y1="700.833" x2="-209.873" y2="891.545" gradientUnits="userSpaceOnUse">
<stop stop-color="#FF00B8"/>
<stop offset="1" stop-color="#41055E"/>
</linearGradient>
<linearGradient id="paint2_linear_32_41" x1="-209.873" y1="700.833" x2="-209.873" y2="891.545" gradientUnits="userSpaceOnUse">
<stop stop-color="#FF00B8"/>
<stop offset="1" stop-color="#41055E"/>
</linearGradient>
<linearGradient id="paint3_linear_32_41" x1="-209.873" y1="700.833" x2="-209.873" y2="891.545" gradientUnits="userSpaceOnUse">
<stop stop-color="#FF00B8"/>
<stop offset="1" stop-color="#41055E"/>
</linearGradient>
<linearGradient id="paint4_linear_32_41" x1="-209.873" y1="700.833" x2="-209.873" y2="891.545" gradientUnits="userSpaceOnUse">
<stop stop-color="#FF00B8"/>
<stop offset="1" stop-color="#41055E"/>
</linearGradient>
</defs>
</svg>
