<svg width="41" height="40" viewBox="0 0 41 40" fill="none" xmlns="http://www.w3.org/2000/svg">
<path fill-rule="evenodd" clip-rule="evenodd" d="M3.64725 6.24595C5.37032 6.24595 6.76715 4.84775 6.76715 3.12298C6.76715 1.3982 5.37032 0 3.64725 0C1.92417 0 0.527344 1.3982 0.527344 3.12298C0.527344 4.84775 1.92417 6.24595 3.64725 6.24595ZM31.2679 33.7109H31.2752V33.711C32.0527 33.7117 32.7986 33.4028 33.3484 32.8525C33.8982 32.3022 34.2067 31.5556 34.2061 30.7773V30.7699C34.2064 30.1233 33.9914 29.4949 33.595 28.9843C33.4007 28.7333 33.1674 28.5151 32.9041 28.338C32.6336 28.156 32.3354 28.0192 32.021 27.9329C28.4569 26.9478 25.9882 23.702 25.9882 20.0009C25.9882 16.2997 28.4569 13.0539 32.021 12.0688C32.3354 11.9825 32.6336 11.8458 32.9041 11.6638C33.1674 11.4867 33.4007 11.2685 33.595 11.0175C33.9914 10.5069 34.2064 9.87856 34.2061 9.2319V9.2245C34.2067 8.44623 33.8982 7.69964 33.3484 7.14932C32.7986 6.599 32.0528 6.29014 31.2753 6.29084H31.2679C30.6219 6.29047 29.9942 6.5057 29.4841 6.90248C29.2333 7.09695 29.0153 7.33044 28.8384 7.59403C28.6566 7.86479 28.5199 8.1633 28.4337 8.47792C27.4451 12.0425 24.2053 14.5114 20.5095 14.5166C16.8139 14.5106 13.5745 12.0421 12.5852 8.47792C12.499 8.1633 12.3623 7.86479 12.1805 7.59403C12.0036 7.33044 11.7857 7.09695 11.5349 6.90248C11.0248 6.5057 10.3971 6.29047 9.75104 6.29084H9.74365C8.96615 6.29012 8.22028 6.59897 7.6705 7.14928C7.12072 7.69958 6.81216 8.44617 6.81286 9.22443V9.23183C6.81249 9.87849 7.0275 10.5068 7.42389 11.0174C7.61818 11.2685 7.85144 11.4866 8.11477 11.6637C8.38526 11.8457 8.68349 11.9825 8.99779 12.0688C12.5589 13.0584 15.0254 16.3014 15.0305 20.0009C15.0246 23.7 12.5584 26.9425 8.99779 27.9327C8.68349 28.019 8.38526 28.1559 8.11477 28.3379C7.85144 28.5149 7.61818 28.7331 7.42389 28.9841C7.02749 29.4948 6.81248 30.1231 6.81286 30.7698V30.7771C6.81214 31.5554 7.12068 32.302 7.67045 32.8523C8.22022 33.4027 8.96607 33.7115 9.74358 33.7109H9.75097C10.397 33.7112 11.0247 33.496 11.5348 33.0992C11.7855 32.9047 12.0035 32.6712 12.1804 32.4076C12.3622 32.1369 12.4989 31.8383 12.5851 31.5237C13.5693 27.9561 16.8118 25.4852 20.5093 25.4852C24.2068 25.4852 27.4494 27.9561 28.4336 31.5237C28.5198 31.8383 28.6565 32.1369 28.8383 32.4076C29.0152 32.6712 29.2332 32.9047 29.484 33.0992C29.9941 33.496 30.6218 33.7113 31.2679 33.7109ZM6.76715 36.8774C6.76715 38.6022 5.37032 40.0004 3.64725 40.0004C1.92417 40.0004 0.527344 38.6022 0.527344 36.8774C0.527344 35.1526 1.92417 33.7544 3.64725 33.7544C5.37032 33.7544 6.76715 35.1526 6.76715 36.8774ZM37.4079 6.24595C39.131 6.24595 40.5278 4.84775 40.5278 3.12298C40.5278 1.3982 39.131 0 37.4079 0C35.6848 0 34.288 1.3982 34.288 3.12298C34.288 4.84775 35.6848 6.24595 37.4079 6.24595ZM40.5278 36.8774C40.5278 38.6022 39.131 40.0004 37.4079 40.0004C35.6848 40.0004 34.288 38.6022 34.288 36.8774C34.288 35.1526 35.6848 33.7544 37.4079 33.7544C39.131 33.7544 40.5278 35.1526 40.5278 36.8774ZM17.6684 18.8157C18.1513 17.6487 19.2889 16.8878 20.5508 16.8879C22.273 16.8899 23.6686 18.2869 23.6706 20.0108C23.6706 21.2739 22.9104 22.4127 21.7446 22.896C20.5788 23.3794 19.2369 23.1122 18.3446 22.219C17.4523 21.3259 17.1854 19.9826 17.6684 18.8157Z" fill="url(#paint0_linear_4735_657)"/>
<defs>
<linearGradient id="paint0_linear_4735_657" x1="20.5276" y1="0" x2="20.5276" y2="40.0004" gradientUnits="userSpaceOnUse">
<stop stop-color="#FF36D3"/>
<stop offset="1" stop-color="#C2129C"/>
</linearGradient>
</defs>
</svg>
