<svg width="21" height="21" viewBox="0 0 21 21" fill="none" xmlns="http://www.w3.org/2000/svg">
<g clip-path="url(#clip0_192_85)">
<path d="M2.59821 0C1.31791 0 0.280029 1.03789 0.280029 2.31818C0.280029 3.59848 1.31791 4.63636 2.59821 4.63636C3.87851 4.63636 4.91639 3.59848 4.91639 2.31818C4.91639 1.03789 3.87851 0 2.59821 0Z" fill="white"/>
<path d="M0.416393 6.54545C0.341081 6.54545 0.280029 6.60651 0.280029 6.68182V20.8636C0.280029 20.9389 0.341081 21 0.416393 21H4.78003C4.85534 21 4.91639 20.9389 4.91639 20.8636V6.68182C4.91639 6.60651 4.85534 6.54545 4.78003 6.54545H0.416393Z" fill="white"/>
<path d="M7.5073 6.54545C7.43199 6.54545 7.37094 6.60651 7.37094 6.68182V20.8636C7.37094 20.9389 7.43199 21 7.5073 21H11.8709C11.9462 21 12.0073 20.9389 12.0073 20.8636V13.2273C12.0073 12.6848 12.2228 12.1645 12.6064 11.7809C12.99 11.3973 13.5103 11.1818 14.0528 11.1818C14.5952 11.1818 15.1155 11.3973 15.4991 11.7809C15.8827 12.1645 16.0982 12.6848 16.0982 13.2273V20.8636C16.0982 20.9389 16.1593 21 16.2346 21H20.5982C20.6735 21 20.7346 20.9389 20.7346 20.8636V11.4603C20.7346 8.81291 18.4321 6.74181 15.798 6.98127C14.9857 7.05512 14.1825 7.25706 13.4325 7.57849L12.0073 8.1893V6.68182C12.0073 6.60651 11.9462 6.54545 11.8709 6.54545H7.5073Z" fill="white"/>
</g>
<defs>
<clipPath id="clip0_192_85">
<rect width="21" height="21" fill="white"/>
</clipPath>
</defs>
</svg>
