<svg width="21" height="21" viewBox="0 0 21 21" fill="none" xmlns="http://www.w3.org/2000/svg">
<g clip-path="url(#clip0_431_58)">
<path d="M0 0H21V21H0V0Z" fill="white"/>
<path d="M15.5406 6.67587L16.4999 5.71252L16.4991 5.5H13.1828L10.8192 11.6911L8.13024 5.50078H4.65171V5.71252L5.77251 7.12903C5.8267 7.18024 5.86862 7.24414 5.89487 7.31555C5.92112 7.38696 5.93096 7.46386 5.92359 7.54V13.1084C5.93967 13.2074 5.93337 13.309 5.90519 13.4049C5.87701 13.5009 5.82774 13.5885 5.76135 13.6608L4.49988 15.2664V15.4773H8.07368V15.2664L6.81295 13.6608C6.74602 13.5886 6.69563 13.5013 6.66559 13.4056C6.63555 13.3099 6.62664 13.2083 6.63955 13.1084V8.29319L9.77648 15.4781H10.1412L12.8353 8.29319V14.0202C12.8353 14.1718 12.8353 14.2015 12.74 14.3015L11.7703 15.289V15.5H16.4761V15.289L15.5406 14.3249C15.5001 14.2925 15.4688 14.2491 15.4501 14.1994C15.4314 14.1497 15.4258 14.0956 15.4341 14.0429V6.95793C15.4258 6.9052 15.4314 6.8511 15.4501 6.80141C15.4688 6.75172 15.5001 6.70833 15.5406 6.67587Z" fill="black"/>
</g>
<defs>
<clipPath id="clip0_431_58">
<rect width="21" height="21" fill="white"/>
</clipPath>
</defs>
</svg>
