<svg width="13" height="13" viewBox="0 0 13 13" fill="none" xmlns="http://www.w3.org/2000/svg">
<path fillRule="evenodd" clipRule="evenodd" d="M3.23095 0.925946C5.38603 0.685085 7.61397 0.685085 9.76905 0.925946C10.9555 1.05856 11.9125 1.99342 12.0518 3.18407C12.3095 5.3872 12.3095 7.61285 12.0518 9.81598C11.9125 11.0066 10.9555 11.9415 9.76905 12.0741C7.61397 12.315 5.38603 12.315 3.23095 12.0741C2.04445 11.9415 1.08746 11.0066 0.948201 9.81598C0.690525 7.61285 0.690525 5.3872 0.948201 3.18407C1.08746 1.99342 2.04445 1.05856 3.23095 0.925946ZM9.25662 4.61256L9.78124 4.11072L9.78084 4.00002H7.96723L6.6746 7.2251L5.2041 4.00043H3.30177V4.11072L3.91472 4.84862C3.94435 4.87529 3.96727 4.90858 3.98163 4.94578C3.99599 4.98298 4.00137 5.02303 3.99734 5.0627V7.9634C4.00613 8.01497 4.00268 8.06787 3.98727 8.11786C3.97186 8.16784 3.94491 8.2135 3.90861 8.25116L3.21874 9.08754V9.19744H5.17317V9.08754L4.4837 8.25116C4.4471 8.21353 4.41954 8.16807 4.40311 8.11821C4.38668 8.06836 4.38181 8.01542 4.38887 7.9634V5.45505L6.10439 9.19784H6.30382L7.77716 5.45505V8.43838C7.77716 8.51733 7.77716 8.5328 7.72507 8.5849L7.19474 9.09935V9.20924H9.76822V9.09935L9.25662 8.59711C9.2345 8.5802 9.2174 8.55759 9.20715 8.53171C9.19689 8.50583 9.19388 8.47765 9.19842 8.45018V4.75949C9.19388 4.73202 9.19689 4.70383 9.20715 4.67795C9.2174 4.65207 9.2345 4.62946 9.25662 4.61256Z" fill="white"/>
</svg>
