<svg width="21" height="21" viewBox="0 0 21 21" fill="none" xmlns="http://www.w3.org/2000/svg">
<g clip-path="url(#clip0_431_75)">
<path fill-rule="evenodd" clip-rule="evenodd" d="M3.57956 0.880005C3.05237 0.880005 2.62501 1.30737 2.62501 1.83455V9.63001H6.12496V7.08456C6.12496 6.55738 6.55232 6.13001 7.0795 6.13001H16.625V1.83455C16.625 1.30737 16.1976 0.880005 15.6705 0.880005H3.57956ZM7.90845 7.0061C7.40266 7.03013 6.99996 7.44782 6.99996 7.95956V9.63001L6.99999 9.63001H11.2955C11.8227 9.63001 12.25 10.0574 12.25 10.5846V16.63L20.0454 16.63C20.5726 16.63 21 16.2026 21 15.6755V7.95956C21 7.43237 20.5726 7.00501 20.0454 7.00501H7.95454C7.93909 7.00501 7.92372 7.00538 7.90845 7.0061ZM16.625 9.63001H18.375V11.38H16.625V9.63001ZM0 11.4595C0 10.9324 0.427365 10.505 0.954545 10.505H10.4205C10.9476 10.505 11.375 10.9324 11.375 11.4595V12.3438L5.68746 16.8938L0 12.3438V11.4595ZM11.375 13.5662V19.1755C11.375 19.7026 10.9476 20.13 10.4205 20.13H0.954545C0.427364 20.13 0 19.7026 0 19.1755V13.5662L5.38931 17.8777L5.68746 18.1162L5.98561 17.8777L11.375 13.5662ZM16.625 9.63001H15.7499V11.38H16.625V9.63001Z" fill="white"/>
</g>
<defs>
<clipPath id="clip0_431_75">
<rect width="21" height="21" fill="white"/>
</clipPath>
</defs>
</svg>
