<svg width="21" height="21" viewBox="0 0 21 21" fill="none" xmlns="http://www.w3.org/2000/svg">
<g clip-path="url(#clip0_431_62)">
<path fill-rule="evenodd" clip-rule="evenodd" d="M1 0C0.447715 0 0 0.447715 0 1V18C0 18.5523 0.447715 19 1 19H19L21 21L21 18V1C21 0.447715 20.5523 0 20 0H1Z" fill="white"/>
<path d="M14.6651 6.75375C13.8884 6.40162 13.0578 6.14572 12.1894 6C12.0828 6.1868 11.9582 6.43806 11.8723 6.63793C10.9492 6.50343 10.0347 6.50343 9.12858 6.63793C9.0427 6.43806 8.91528 6.1868 8.80768 6C7.9384 6.14572 7.10688 6.40257 6.3301 6.75561C4.76332 9.04951 4.33859 11.2864 4.55096 13.4916C5.59013 14.2435 6.5972 14.7002 7.58729 14.9991C7.83174 14.6731 8.04977 14.3266 8.23759 13.9614C7.87988 13.8297 7.53726 13.6672 7.21354 13.4785C7.29942 13.4169 7.38343 13.3524 7.46459 13.2861C9.4391 14.1809 11.5844 14.1809 13.5354 13.2861C13.6175 13.3524 13.7015 13.4169 13.7864 13.4785C13.4617 13.6681 13.1182 13.8306 12.7605 13.9623C12.9483 14.3266 13.1654 14.674 13.4108 15C14.4018 14.7011 15.4098 14.2444 16.449 13.4916C16.6982 10.9353 16.0233 8.71887 14.6651 6.75375ZM8.50659 12.1354C7.91386 12.1354 7.42778 11.5993 7.42778 10.9465C7.42778 10.2936 7.90348 9.75655 8.50659 9.75655C9.10971 9.75655 9.59578 10.2927 9.5854 10.9465C9.58634 11.5993 9.10971 12.1354 8.50659 12.1354ZM12.4934 12.1354C11.9006 12.1354 11.4146 11.5993 11.4146 10.9465C11.4146 10.2936 11.8902 9.75655 12.4934 9.75655C13.0965 9.75655 13.5826 10.2927 13.5722 10.9465C13.5722 11.5993 13.0965 12.1354 12.4934 12.1354Z" fill="black"/>
</g>
<defs>
<clipPath id="clip0_431_62">
<rect width="21" height="21" fill="white"/>
</clipPath>
</defs>
</svg>
