<svg width="15" height="13" viewBox="0 0 15 13" fill="none" xmlns="http://www.w3.org/2000/svg">
<path d="M12.7064 1.64238C11.7354 1.18808 10.6972 0.85792 9.61181 0.669922C9.47851 0.910929 9.32277 1.23509 9.2154 1.49296C8.06156 1.31943 6.91834 1.31943 5.78572 1.49296C5.67837 1.23509 5.5191 0.910929 5.3846 0.669922C4.298 0.85792 3.2586 1.1893 2.28762 1.64478C0.329152 4.60429 -0.201757 7.49028 0.0636979 10.3353C1.36266 11.3053 2.62151 11.8946 3.85911 12.2802C4.16468 11.8596 4.43721 11.4126 4.67199 10.9414C4.22484 10.7715 3.79658 10.5618 3.39192 10.3184C3.49927 10.2389 3.60429 10.1557 3.70574 10.0702C6.17387 11.2246 8.85556 11.2246 11.2942 10.0702C11.3969 10.1557 11.5018 10.2389 11.608 10.3184C11.2022 10.563 10.7727 10.7727 10.3256 10.9426C10.5604 11.4126 10.8317 11.8608 11.1385 12.2814C12.3773 11.8958 13.6373 11.3065 14.9362 10.3353C15.2477 7.0372 14.4042 4.17771 12.7064 1.64238ZM5.00823 8.58564C4.26733 8.58564 3.65972 7.89395 3.65972 7.05165C3.65972 6.20935 4.25435 5.51648 5.00823 5.51648C5.76214 5.51648 6.36972 6.20814 6.35675 7.05165C6.35792 7.89395 5.76214 8.58564 5.00823 8.58564ZM9.99171 8.58564C9.2508 8.58564 8.6432 7.89395 8.6432 7.05165C8.6432 6.20935 9.23781 5.51648 9.99171 5.51648C10.7456 5.51648 11.3532 6.20814 11.3402 7.05165C11.3402 7.89395 10.7456 8.58564 9.99171 8.58564Z" fill="white"/>
</svg>
