<svg width="13" height="13" viewBox="0 0 13 13" fill="none" xmlns="http://www.w3.org/2000/svg">
<g clip-path="url(#clip0_440_42)">
<path d="M5.05558 6.86111C3.85886 6.86111 2.88892 7.83142 2.88892 9.02778C2.88892 10.2241 3.85886 11.1944 5.05558 11.1944C6.25231 11.1944 7.22225 10.2241 7.22225 9.02778C7.22225 7.83142 6.25194 6.86111 5.05558 6.86111ZM5.05558 10.4722C4.25789 10.4722 3.61114 9.82548 3.61114 9.02778C3.61114 8.23009 4.25789 7.58334 5.05558 7.58334C5.85328 7.58334 6.50003 8.23009 6.50003 9.02778C6.50003 9.82548 5.85328 10.4722 5.05558 10.4722Z" fill="#3B88C3"/>
<path d="M0.643861 5.06386V5.07108C0.282389 5.15052 0 5.75575 0 6.5C0 7.24425 0.282389 7.84947 0.643861 7.92855V7.93613L11.0081 10.8149V2.18977L0.643861 5.06386Z" fill="#55ACEE"/>
<path d="M11.1945 10.8333C12.1917 10.8333 13 8.89324 13 6.50001C13 4.10677 12.1917 2.16667 11.1945 2.16667C10.1973 2.16667 9.38892 4.10677 9.38892 6.50001C9.38892 8.89324 10.1973 10.8333 11.1945 10.8333Z" fill="#226699"/>
</g>
<defs>
<clipPath id="clip0_440_42">
<rect width="13" height="13" fill="white"/>
</clipPath>
</defs>
</svg>