<svg width="13" height="12" viewBox="0 0 13 12" fill="none" xmlns="http://www.w3.org/2000/svg">
<path fillRule="evenodd" clipRule="evenodd" d="M10.5519 10.3688L10.5524 10.3677L10.5632 10.3405L12.4375 0.891081V0.860389C12.4375 0.62495 12.3505 0.419413 12.1612 0.296126C11.9955 0.188212 11.805 0.180527 11.6715 0.190664C11.5302 0.201386 11.397 0.236646 11.3048 0.265996C11.2574 0.281096 11.2176 0.295645 11.1893 0.306649C11.175 0.312172 11.1635 0.316858 11.155 0.32035L11.1468 0.323823L0.696916 4.42316L0.694041 4.42419C0.688396 4.42624 0.680933 4.42903 0.671918 4.43254C0.653947 4.43953 0.629485 4.44954 0.600747 4.46257C0.544321 4.48814 0.466361 4.5276 0.387298 4.58175C0.253014 4.6737 -0.00268188 4.89141 0.0404945 5.23655C0.0762574 5.52243 0.273322 5.70399 0.406177 5.79799C0.477395 5.84838 0.545528 5.88472 0.595421 5.90847C0.620701 5.92051 0.642175 5.92973 0.658166 5.93624C0.666184 5.9395 0.672888 5.94211 0.678075 5.94408L0.684716 5.94656L0.688961 5.94814L2.51724 6.56364C2.51107 6.67835 2.52244 6.79531 2.55286 6.9107L3.46867 10.3847C3.57725 10.7966 3.94989 11.0835 4.37587 11.0832C4.7577 11.083 5.09635 10.852 5.24021 10.5073L6.67001 8.97853L9.12562 10.8612L9.16054 10.8764C9.38365 10.9738 9.59209 11.0046 9.78267 10.9786C9.97297 10.9526 10.1242 10.8728 10.2378 10.7819C10.3496 10.6925 10.4262 10.5915 10.4744 10.5155C10.4989 10.4769 10.5171 10.443 10.5298 10.4174C10.5361 10.4046 10.5411 10.3938 10.5449 10.3853L10.5496 10.3744L10.5513 10.3704L10.5519 10.3688ZM3.45936 6.67172C3.43855 6.59277 3.47122 6.50942 3.54015 6.46565L9.74141 2.52758C9.74141 2.52758 10.1062 2.30614 10.0931 2.52758C10.0931 2.52758 10.1582 2.56668 9.96277 2.74901C9.77737 2.92218 5.54296 7.01034 5.1145 7.42402C5.08977 7.4479 5.07501 7.47529 5.06629 7.50855L4.37517 10.1457L3.45936 6.67172Z" fill="white"/>
</svg>
