<svg width="21" height="21" viewBox="0 0 21 21" fill="none" xmlns="http://www.w3.org/2000/svg">
<g clip-path="url(#clip0_431_68)">
<circle cx="10.5" cy="10.5" r="10.5" fill="white"/>
<path fill-rule="evenodd" clip-rule="evenodd" d="M13.7415 14.395L13.7419 14.3942L13.7506 14.3724L15.25 6.8129V6.78835C15.25 6.6 15.1804 6.43557 15.0289 6.33694C14.8964 6.25061 14.744 6.24446 14.6371 6.25257C14.5241 6.26115 14.4176 6.28935 14.3438 6.31283C14.3059 6.32491 14.2741 6.33655 14.2514 6.34536C14.24 6.34977 14.2307 6.35352 14.224 6.35632L14.2174 6.3591L5.85751 9.63856L5.85521 9.63939C5.85069 9.64103 5.84472 9.64326 5.83751 9.64607C5.82313 9.65166 5.80356 9.65967 5.78057 9.67009C5.73543 9.69055 5.67306 9.72212 5.60981 9.76543C5.50239 9.839 5.29783 10.0132 5.33237 10.2893C5.36098 10.518 5.51863 10.6632 5.62492 10.7384C5.68189 10.7787 5.7364 10.8078 5.77631 10.8268C5.79654 10.8364 5.81372 10.8438 5.82651 10.849C5.83292 10.8516 5.83829 10.8537 5.84244 10.8553L5.84775 10.8573L5.85114 10.8585L7.31377 11.3509C7.30883 11.4427 7.31793 11.5363 7.34227 11.6286L8.07491 14.4078C8.16178 14.7373 8.45989 14.9669 8.80067 14.9666C9.10614 14.9664 9.37705 14.7816 9.49215 14.5059L10.636 13.2829L12.6005 14.789L12.6284 14.8012C12.8069 14.8791 12.9736 14.9037 13.1261 14.8829C13.2784 14.8621 13.3993 14.7983 13.4902 14.7256C13.5796 14.654 13.6409 14.5733 13.6795 14.5125C13.6991 14.4816 13.7137 14.4544 13.7238 14.434C13.7289 14.4237 13.7329 14.415 13.7359 14.4083L13.7397 14.3996L13.741 14.3964L13.7415 14.395ZM8.06747 11.4374C8.05081 11.3742 8.07696 11.3076 8.1321 11.2726L13.0931 8.1221C13.0931 8.1221 13.3849 7.94495 13.3745 8.1221C13.3745 8.1221 13.4265 8.15338 13.2702 8.29925C13.1219 8.43778 9.73435 11.7083 9.39158 12.0393C9.37179 12.0584 9.35998 12.0803 9.35301 12.1069L8.80011 14.2166L8.06747 11.4374Z" fill="black"/>
</g>
<defs>
<clipPath id="clip0_431_68">
<rect width="21" height="21" fill="white"/>
</clipPath>
</defs>
</svg>
