<svg width="21" height="21" viewBox="0 0 21 21" fill="none" xmlns="http://www.w3.org/2000/svg">
<path d="M20.9797 3.96236C21.0421 3.87306 20.9499 3.75777 20.8501 3.79749C20.1409 4.07977 19.3997 4.27023 18.6437 4.36408C19.4855 3.84765 20.1351 3.0615 20.4953 2.13076C20.532 2.03595 20.4312 1.95128 20.3442 2.0006C19.5618 2.44431 18.718 2.76381 17.8415 2.94782C17.8048 2.95552 17.767 2.9427 17.7412 2.91479C17.0834 2.20205 16.2176 1.7275 15.2736 1.56352C14.3099 1.39608 13.3193 1.56187 12.4572 2.03486C11.5951 2.50786 10.9102 3.26131 10.51 4.17706C10.1296 5.04776 10.0269 6.01835 10.2145 6.95049C10.2291 7.02281 10.174 7.09109 10.1022 7.08652C8.39676 6.97775 6.73047 6.51194 5.20596 5.71715C3.68532 4.92438 2.33875 3.8215 1.24827 2.47654C1.19987 2.41685 1.10814 2.42458 1.07288 2.49329C0.733562 3.1545 0.555902 3.89146 0.556384 4.64048C0.555007 5.38605 0.733185 6.12041 1.07505 6.77816C1.41692 7.43592 1.91188 7.99666 2.51584 8.41046C1.87533 8.39257 1.24731 8.22996 0.676157 7.93515C0.602551 7.89716 0.51426 7.95125 0.518089 8.03576C0.562627 9.01887 0.914095 10.0058 1.52246 10.7631C2.16985 11.5689 3.06843 12.1204 4.06618 12.3242C3.6821 12.4442 3.28334 12.5075 2.88189 12.5121C2.6634 12.5095 2.44534 12.4929 2.22896 12.4626C2.14873 12.4513 2.08322 12.5296 2.1113 12.6075C2.4089 13.434 2.93465 14.155 3.62592 14.6814C4.36497 15.2442 5.25647 15.5564 6.17637 15.5745C4.62302 16.8297 2.7052 17.5147 0.728644 17.5203C0.525546 17.521 0.322538 17.5143 0.120008 17.5001C0.00587744 17.4921 -0.0466133 17.6483 0.0517638 17.7082C1.9776 18.8818 4.17878 19.5021 6.42399 19.4993C8.08166 19.517 9.72614 19.1953 11.2614 18.553C12.7966 17.9108 14.1919 16.9608 15.3656 15.7586C16.5393 14.5564 17.468 13.1261 18.0974 11.5513C18.7267 9.97641 19.0442 8.28855 19.0313 6.58628V6.05579C19.0313 6.02089 19.0474 5.98806 19.0745 5.96703C19.8047 5.40082 20.4469 4.72484 20.9797 3.96236Z" fill="white"/>
</svg>
