<svg width="27" height="21" viewBox="0 0 27 21" fill="none" xmlns="http://www.w3.org/2000/svg">
<path d="M25.1343 2.87276C25.209 2.76858 25.0986 2.63406 24.9791 2.6804C24.1294 3.00973 23.2415 3.23193 22.3357 3.34143C23.3442 2.73892 24.1225 1.82175 24.554 0.735891C24.598 0.625275 24.4772 0.526492 24.373 0.584036C23.4357 1.10169 22.4247 1.47445 21.3746 1.68913C21.3307 1.69811 21.2854 1.68315 21.2545 1.65058C20.4665 0.819062 19.4291 0.265422 18.2983 0.0741029C17.1437 -0.121235 15.9569 0.0721772 14.9241 0.624006C13.8912 1.17583 13.0708 2.05487 12.5913 3.12324C12.1355 4.13906 12.0125 5.27141 12.2373 6.3589C12.2548 6.44328 12.1887 6.52294 12.1027 6.5176C10.0596 6.3907 8.0633 5.84726 6.23689 4.92C4.41512 3.99511 2.80189 2.70842 1.49546 1.1393C1.43748 1.06966 1.32759 1.07868 1.28534 1.15884C0.87883 1.93025 0.665987 2.79004 0.666565 3.66389C0.664915 4.53373 0.878377 5.39048 1.28795 6.15786C1.69752 6.92524 2.29048 7.57944 3.01405 8.06221C2.2467 8.04133 1.49431 7.85162 0.810057 7.50767C0.721874 7.46335 0.616099 7.52646 0.620686 7.62505C0.674044 8.77201 1.09511 9.92348 1.82395 10.8069C2.59955 11.747 3.67607 12.3904 4.87141 12.6282C4.41127 12.7682 3.93354 12.8421 3.4526 12.8475C3.19084 12.8444 2.92959 12.8251 2.67036 12.7897C2.57424 12.7765 2.49576 12.8678 2.52941 12.9588C2.88594 13.9229 3.51579 14.7642 4.34397 15.3783C5.22937 16.0349 6.29741 16.3991 7.39947 16.4203C5.53851 17.8846 3.24091 18.6838 0.872938 18.6904C0.62962 18.6912 0.386411 18.6833 0.143774 18.6668C0.00704135 18.6575 -0.0558441 18.8396 0.0620146 18.9096C2.36922 20.2788 5.00631 21.0025 7.69614 20.9992C9.68207 21.0198 11.6522 20.6445 13.4915 19.8952C15.3308 19.1459 17.0023 18.0376 18.4084 16.6351C19.8146 15.2325 20.9272 13.5638 21.6812 11.7265C22.4352 9.88915 22.8156 7.91997 22.8 5.93399V5.31509C22.8 5.27437 22.8193 5.23607 22.8518 5.21154C23.7267 4.55096 24.496 3.76231 25.1343 2.87276Z" fill="white"/>
</svg>
