<svg width="13" height="13" viewBox="0 0 13 13" fill="none" xmlns="http://www.w3.org/2000/svg">
<g clip-path="url(#clip0_426_118)">
<path d="M10.7059 7.60092V6.85827C11.0883 6.4686 11.8201 5.76491 12.0025 4.86337C12.0568 4.89325 12.0235 4.91255 12.0839 4.91255C12.3738 4.91255 12.5642 4.54065 12.5642 4.08137C12.5642 3.62965 12.3133 3.26381 12.0293 3.25246C12.0839 3.05724 12.1103 2.7962 12.1103 2.461C12.1103 1.34267 11.1357 0 8.95474 0C7.01697 0 5.80261 1.34267 5.80261 2.461C5.80261 2.78561 5.82211 3.05195 5.85691 3.25813C5.59041 3.29786 5.38011 3.64894 5.38011 4.08099C5.38011 4.54028 5.61488 4.91217 5.90508 4.91217C5.96511 4.91217 5.8787 4.89287 5.93261 4.86299C6.115 5.76491 6.88238 6.46822 7.26474 6.85827V7.55704C5.73532 7.74317 4.58826 8.55128 4.58826 9.35976V9.6662C4.58826 9.9734 4.90293 9.9734 5.21302 9.9734H12.3745C12.6854 9.9734 13 9.9734 13 9.6662V9.35976C13 8.60273 11.853 7.84759 10.7059 7.60092Z" fill="#55ACEE"/>
<path d="M6.11767 10.6275V9.88487C6.50002 9.49519 7.23185 8.79151 7.41423 7.88996C7.46852 7.91985 7.43526 7.93914 7.49567 7.93914C7.7855 7.93914 7.97591 7.56725 7.97591 7.10796C7.97591 6.65624 7.72508 6.2904 7.44099 6.27905C7.49567 6.08384 7.52205 5.82279 7.52205 5.4876C7.52205 4.36927 6.54743 3.0266 4.36648 3.0266C2.42833 3.0266 1.21436 4.36927 1.21436 5.4876C1.21436 5.8122 1.23386 6.07854 1.26865 6.28473C1.00215 6.32445 0.791855 6.67554 0.791855 7.10759C0.791855 7.56687 1.02662 7.93877 1.31683 7.93877C1.37686 7.93877 1.29045 7.91947 1.34436 7.88958C1.52674 8.79151 2.29412 9.49482 2.67648 9.88487V10.5836C1.14706 10.7698 0 11.5779 0 12.3864V12.6932C0 13 0.314677 13 0.624767 13H7.78626C8.09711 13 8.41179 13 8.41179 12.6928V12.386C8.41179 11.6293 7.26473 10.8742 6.11767 10.6275Z" fill="#226699"/>
</g>
<defs>
<clipPath id="clip0_426_118">
<rect width="13" height="13" fill="white"/>
</clipPath>
</defs>
</svg>
