<svg width="40" height="40" viewBox="0 0 40 40" fill="none" xmlns="http://www.w3.org/2000/svg">
<path fill-rule="evenodd" clip-rule="evenodd" d="M3.1199 6.24595C4.84298 6.24595 6.23981 4.84775 6.23981 3.12298C6.23981 1.3982 4.84298 0 3.1199 0C1.39683 0 0 1.3982 0 3.12298C0 4.84775 1.39683 6.24595 3.1199 6.24595ZM30.7405 33.7109H30.7479V33.711C31.5254 33.7117 32.2713 33.4028 32.821 32.8525C33.3708 32.3022 33.6794 31.5556 33.6787 30.7773V30.7699C33.6791 30.1233 33.4641 29.4949 33.0677 28.9843C32.8734 28.7333 32.6401 28.5151 32.3767 28.338C32.1062 28.156 31.808 28.0192 31.4937 27.9329C27.9295 26.9478 25.4609 23.702 25.4609 20.0009C25.4609 16.2997 27.9295 13.0539 31.4937 12.0688C31.808 11.9825 32.1062 11.8458 32.3767 11.6638C32.6401 11.4867 32.8734 11.2685 33.0677 11.0175C33.4641 10.5069 33.6791 9.87856 33.6787 9.2319V9.2245C33.6794 8.44623 33.3708 7.69964 32.8211 7.14932C32.2713 6.599 31.5254 6.29014 30.7479 6.29084H30.7406C30.0946 6.29047 29.4669 6.5057 28.9567 6.90248C28.706 7.09695 28.488 7.33044 28.3111 7.59403C28.1293 7.86479 27.9926 8.1633 27.9064 8.47792C26.9177 12.0425 23.6779 14.5114 19.9821 14.5166C16.2866 14.5106 13.0472 12.0421 12.0578 8.47792C11.9717 8.1633 11.835 7.86479 11.6532 7.59403C11.4763 7.33044 11.2583 7.09695 11.0075 6.90248C10.4974 6.5057 9.86972 6.29047 9.22369 6.29084H9.2163C8.4388 6.29012 7.69294 6.59897 7.14316 7.14928C6.59337 7.69958 6.28482 8.44617 6.28551 9.22443V9.23183C6.28515 9.87849 6.50016 10.5068 6.89655 11.0174C7.09084 11.2685 7.32409 11.4866 7.58743 11.6637C7.85792 11.8457 8.15614 11.9825 8.47045 12.0688C12.0316 13.0584 14.4981 16.3014 14.5032 20.0009C14.4972 23.7 12.0311 26.9425 8.47045 27.9327C8.15614 28.019 7.85792 28.1559 7.58743 28.3379C7.32409 28.5149 7.09084 28.7331 6.89655 28.9841C6.50015 29.4948 6.28513 30.1231 6.28551 30.7698V30.7771C6.2848 31.5554 6.59334 32.302 7.1431 32.8523C7.69287 33.4027 8.43873 33.7115 9.21624 33.7109H9.22363C9.86963 33.7112 10.4973 33.496 11.0074 33.0992C11.2582 32.9047 11.4762 32.6712 11.6531 32.4076C11.8349 32.1369 11.9715 31.8383 12.0577 31.5237C13.0419 27.9561 16.2845 25.4852 19.982 25.4852C23.6795 25.4852 26.922 27.9561 27.9062 31.5237C27.9925 31.8383 28.1291 32.1369 28.311 32.4076C28.4878 32.6712 28.7058 32.9047 28.9566 33.0992C29.4667 33.496 30.0945 33.7113 30.7405 33.7109ZM6.23981 36.8774C6.23981 38.6022 4.84298 40.0004 3.1199 40.0004C1.39683 40.0004 0 38.6022 0 36.8774C0 35.1526 1.39683 33.7544 3.1199 33.7544C4.84298 33.7544 6.23981 35.1526 6.23981 36.8774ZM36.8806 6.24595C38.6036 6.24595 40.0005 4.84775 40.0005 3.12298C40.0005 1.3982 38.6036 0 36.8806 0C35.1575 0 33.7607 1.3982 33.7607 3.12298C33.7607 4.84775 35.1575 6.24595 36.8806 6.24595ZM40.0005 36.8774C40.0005 38.6022 38.6036 40.0004 36.8806 40.0004C35.1575 40.0004 33.7607 38.6022 33.7607 36.8774C33.7607 35.1526 35.1575 33.7544 36.8806 33.7544C38.6036 33.7544 40.0005 35.1526 40.0005 36.8774ZM17.141 18.8157C17.6239 17.6487 18.7616 16.8878 20.0234 16.8879C21.7456 16.8899 23.1413 18.2869 23.1432 20.0108C23.1432 21.2739 22.3831 22.4127 21.2173 22.896C20.0514 23.3794 18.7095 23.1122 17.8173 22.219C16.925 21.3259 16.6581 19.9826 17.141 18.8157Z" fill="white"/>
</svg>
