<svg width="1080" height="1080" viewBox="0 0 1080 1080" fill="none" xmlns="http://www.w3.org/2000/svg">
<path fill-rule="evenodd" clip-rule="evenodd" d="M273.506 205.502C298.939 205.502 319.557 184.884 319.557 159.451C319.557 134.018 298.939 113.4 273.506 113.4C248.073 113.4 227.455 134.018 227.455 159.451C227.455 184.884 248.073 205.502 273.506 205.502ZM681.174 610.487H681.282V610.489C692.758 610.5 703.768 605.945 711.883 597.83C719.998 589.715 724.552 578.706 724.542 567.229V567.121C724.548 557.585 721.374 548.32 715.523 540.79C712.655 537.088 709.212 533.871 705.324 531.26C701.332 528.576 696.93 526.559 692.291 525.286C639.682 510.76 603.244 462.899 603.244 408.322C603.244 353.744 639.682 305.883 692.291 291.357C696.93 290.085 701.332 288.068 705.324 285.384C709.212 282.773 712.655 279.556 715.523 275.854C721.374 268.325 724.548 259.06 724.542 249.524V249.415C724.552 237.939 719.998 226.93 711.883 218.815C703.768 210.7 692.759 206.145 681.283 206.156H681.175C671.639 206.15 662.374 209.324 654.844 215.175C651.143 218.043 647.925 221.485 645.314 225.372C642.631 229.365 640.613 233.767 639.34 238.406C624.747 290.969 576.927 327.375 522.375 327.451C467.828 327.363 420.013 290.962 405.41 238.406C404.138 233.767 402.121 229.365 399.437 225.372C396.827 221.485 393.609 218.043 389.907 215.175C382.378 209.324 373.113 206.15 363.577 206.156H363.468C351.992 206.145 340.983 210.699 332.868 218.814C324.753 226.929 320.198 237.938 320.209 249.414V249.523C320.203 259.059 323.377 268.324 329.228 275.853C332.095 279.555 335.538 282.772 339.425 285.383C343.418 288.067 347.82 290.084 352.459 291.356C405.023 305.949 441.429 353.77 441.505 408.322C441.417 462.868 405.015 510.682 352.459 525.284C347.82 526.557 343.418 528.574 339.425 531.258C335.538 533.869 332.095 537.086 329.228 540.788C323.377 548.318 320.203 557.583 320.209 567.119V567.227C320.198 578.703 324.752 589.713 332.867 597.828C340.982 605.943 351.991 610.497 363.467 610.487H363.576C373.111 610.493 382.376 607.319 389.905 601.468C393.607 598.6 396.825 595.157 399.436 591.27C402.119 587.277 404.136 582.875 405.408 578.236C419.935 525.629 467.797 489.193 522.373 489.193C576.95 489.193 624.811 525.629 639.338 578.236C640.611 582.875 642.629 587.277 645.312 591.27C647.923 595.157 651.141 598.6 654.842 601.468C662.372 607.319 671.638 610.493 681.174 610.487ZM319.557 657.192C319.557 682.626 298.939 703.243 273.506 703.243C248.073 703.243 227.455 682.626 227.455 657.192C227.455 631.759 248.073 611.141 273.506 611.141C298.939 611.141 319.557 631.759 319.557 657.192ZM771.904 205.502C797.337 205.502 817.955 184.884 817.955 159.451C817.955 134.018 797.337 113.4 771.904 113.4C746.471 113.4 725.853 134.018 725.853 159.451C725.853 184.884 746.471 205.502 771.904 205.502ZM817.955 657.192C817.955 682.626 797.337 703.243 771.904 703.243C746.471 703.243 725.853 682.626 725.853 657.192C725.853 631.759 746.471 611.141 771.904 611.141C797.337 611.141 817.955 631.759 817.955 657.192ZM480.486 390.86C487.614 373.653 504.406 362.433 523.031 362.433C548.452 362.463 569.052 383.063 569.081 408.484C569.081 427.109 557.861 443.901 540.653 451.029C523.445 458.156 503.638 454.216 490.468 441.046C477.297 427.875 473.358 408.068 480.486 390.86Z" fill="url(#paint0_linear_4210_2)"/>
<path d="M207.098 963.08C205.735 965.613 203.592 966.879 200.67 966.879C197.554 966.879 195.313 965.613 193.95 963.08C192.392 960.353 192.392 957.724 193.95 955.191L227.259 899.385C234.66 887.113 238.361 873.868 238.361 859.648C238.361 845.429 234.758 832.183 227.551 819.912L198.041 769.365C196.482 766.832 196.385 764.3 197.748 761.768C199.307 759.236 201.547 757.969 204.468 757.969H205.053C208.169 757.969 210.409 759.236 211.773 761.768L245.666 821.373C248.783 826.827 253.36 829.554 259.398 829.554C265.632 829.554 270.307 826.827 273.423 821.373L307.608 761.768C308.972 759.236 311.114 757.969 314.036 757.969H314.621C317.542 757.969 319.685 759.236 321.049 761.768C322.607 764.3 322.607 766.832 321.049 769.365L291.538 819.62C284.331 832.086 280.728 845.429 280.728 859.648C280.922 874.063 284.721 887.308 292.123 899.385L325.723 955.191C327.087 957.724 327.087 960.353 325.723 963.08C324.165 965.613 321.925 966.879 319.003 966.879H318.419C315.497 966.879 313.354 965.613 311.991 963.08L273.131 897.047C270.209 891.983 265.632 889.451 259.398 889.451C253.36 889.451 248.88 891.983 245.958 897.047L207.098 963.08Z" fill="url(#paint1_linear_4210_2)"/>
<path d="M418.915 902.015C429.434 902.015 437.81 897.632 444.043 888.866C450.276 880.296 451.542 870.946 447.841 860.817L418.915 779.006L389.697 860.817C386.191 870.946 387.457 880.296 393.496 888.866C399.729 897.632 408.202 902.015 418.915 902.015ZM418.331 916.039C403.917 916.039 390.769 920.227 378.887 928.603C367.005 936.979 358.629 947.984 353.759 961.619C352.59 965.126 350.058 966.879 346.162 966.879C343.435 966.879 341.293 965.71 339.734 963.372C338.176 961.23 337.884 958.795 338.858 956.068L409.273 764.397C411.026 760.112 414.24 757.969 418.915 757.969C423.59 757.969 426.707 760.112 428.265 764.397L498.681 956.068C499.655 958.795 499.362 961.23 497.804 963.372C496.246 965.71 494.103 966.879 491.376 966.879C487.675 966.879 485.143 965.126 483.779 961.619C478.91 947.984 470.534 936.979 458.652 928.603C446.77 920.227 433.622 916.039 419.208 916.039H418.331Z" fill="url(#paint2_linear_4210_2)"/>
<path d="M552.417 958.99C552.417 964.249 549.787 966.879 544.528 966.879C539.269 966.879 536.639 964.249 536.639 958.99V768.196C536.639 765.274 537.613 762.839 539.561 760.891C541.703 758.943 544.138 757.969 546.865 757.969C550.566 757.969 553.488 759.43 555.631 762.352L650.589 905.229C654.096 910.293 658.673 911.949 664.322 910.196C670.166 908.442 673.087 904.547 673.087 898.508V765.858C673.087 760.599 675.717 757.969 680.976 757.969C686.235 757.969 688.865 760.599 688.865 765.858V956.652C688.865 959.379 687.891 961.814 685.943 963.957C683.995 965.905 681.561 966.879 678.639 966.879C674.938 966.879 672.113 965.32 670.166 962.204L574.915 819.035C571.603 813.971 567.026 812.315 561.182 814.068C555.339 815.821 552.417 819.717 552.417 825.755V958.99Z" fill="url(#paint3_linear_4210_2)"/>
<path d="M806.968 902.015C817.486 902.015 825.862 897.632 832.095 888.866C838.328 880.296 839.595 870.946 835.894 860.817L806.968 779.006L777.75 860.817C774.243 870.946 775.51 880.296 781.548 888.866C787.781 897.632 796.254 902.015 806.968 902.015ZM806.383 916.039C791.969 916.039 778.821 920.227 766.939 928.603C755.057 936.979 746.681 947.984 741.811 961.619C740.643 965.126 738.11 966.879 734.215 966.879C731.488 966.879 729.345 965.71 727.787 963.372C726.228 961.23 725.936 958.795 726.91 956.068L797.326 764.397C799.079 760.112 802.293 757.969 806.968 757.969C811.643 757.969 814.759 760.112 816.317 764.397L886.733 956.068C887.707 958.795 887.415 961.23 885.857 963.372C884.298 965.71 882.156 966.879 879.429 966.879C875.728 966.879 873.195 965.126 871.832 961.619C866.962 947.984 858.586 936.979 846.704 928.603C834.822 920.227 821.674 916.039 807.26 916.039H806.383Z" fill="url(#paint4_linear_4210_2)"/>
<defs>
<linearGradient id="paint0_linear_4210_2" x1="522.705" y1="113.4" x2="522.705" y2="703.243" gradientUnits="userSpaceOnUse">
<stop stop-color="#FF36D3"/>
<stop offset="1" stop-color="#C2129C"/>
</linearGradient>
<linearGradient id="paint1_linear_4210_2" x1="539.453" y1="661.239" x2="539.453" y2="1037.62" gradientUnits="userSpaceOnUse">
<stop stop-color="#FF36D3"/>
<stop offset="1" stop-color="#C2129C"/>
</linearGradient>
<linearGradient id="paint2_linear_4210_2" x1="539.453" y1="661.239" x2="539.453" y2="1037.62" gradientUnits="userSpaceOnUse">
<stop stop-color="#FF36D3"/>
<stop offset="1" stop-color="#C2129C"/>
</linearGradient>
<linearGradient id="paint3_linear_4210_2" x1="539.453" y1="661.239" x2="539.453" y2="1037.62" gradientUnits="userSpaceOnUse">
<stop stop-color="#FF36D3"/>
<stop offset="1" stop-color="#C2129C"/>
</linearGradient>
<linearGradient id="paint4_linear_4210_2" x1="539.453" y1="661.239" x2="539.453" y2="1037.62" gradientUnits="userSpaceOnUse">
<stop stop-color="#FF36D3"/>
<stop offset="1" stop-color="#C2129C"/>
</linearGradient>
</defs>
</svg>
