<svg width="139" height="138" viewBox="0 0 139 138" fill="none" xmlns="http://www.w3.org/2000/svg">
<path fillRule="evenodd" clipRule="evenodd" d="M10.84 21.548C16.8268 21.548 21.68 16.7243 21.68 10.774C21.68 4.82369 16.8268 0 10.84 0C4.85324 0 0 4.82369 0 10.774C0 16.7243 4.85324 21.548 10.84 21.548ZM106.802 116.298H106.827V116.298C109.529 116.3 112.12 115.235 114.03 113.336C115.941 111.438 117.013 108.862 117.01 106.177V106.152C117.012 103.921 116.265 101.753 114.887 99.9913C114.212 99.1252 113.402 98.3725 112.487 97.7616C111.547 97.1338 110.511 96.6618 109.419 96.364C97.035 92.9656 88.4579 81.768 88.4579 68.9991C88.4579 56.2303 97.035 45.0327 109.419 41.6343C110.511 41.3366 111.547 40.8647 112.487 40.2369C113.402 39.626 114.212 38.8733 114.887 38.0073C116.265 36.2457 117.012 34.078 117.01 31.8471V31.8216C117.013 29.1366 115.941 26.5609 114.031 24.6623C112.12 22.7638 109.529 21.6983 106.827 21.7007H106.802C104.557 21.6994 102.376 22.4419 100.604 23.8108C99.7328 24.4817 98.9754 25.2872 98.3608 26.1966C97.7291 27.1307 97.2542 28.1605 96.9546 29.2459C93.5195 41.5435 82.2629 50.0609 69.422 50.0788C56.582 50.0582 45.3268 41.5419 41.8894 29.2459C41.5899 28.1605 41.1151 27.1307 40.4834 26.1966C39.8688 25.2872 39.1114 24.4817 38.2401 23.8108C36.4677 22.4419 34.2868 21.6994 32.0422 21.7007H32.0165C29.3151 21.6982 26.7236 22.7637 24.8134 24.6622C22.9032 26.5607 21.8312 29.1364 21.8336 31.8213V31.8469C21.8323 34.0778 22.5794 36.2454 23.9566 38.007C24.6316 38.873 25.4421 39.6258 26.357 40.2367C27.2969 40.8645 28.333 41.3364 29.4251 41.634C41.7981 45.0482 50.3678 56.2363 50.3857 68.9991C50.3649 81.7608 41.7964 92.9472 29.4251 96.3636C28.333 96.6613 27.2968 97.1333 26.357 97.7612C25.4421 98.372 24.6317 99.1248 23.9566 99.9908C22.5793 101.752 21.8322 103.92 21.8336 106.151V106.176C21.8311 108.861 22.9031 111.437 24.8132 113.336C26.7234 115.234 29.3149 116.3 32.0163 116.298H32.042C34.2865 116.299 36.4673 115.556 38.2397 114.188C39.111 113.517 39.8684 112.711 40.483 111.801C41.1146 110.867 41.5894 109.838 41.8889 108.752C45.3085 96.4442 56.5746 87.9197 69.4215 87.9197C82.2684 87.9197 93.5346 96.4442 96.9541 108.752C97.2537 109.838 97.7286 110.867 98.3603 111.801C98.9749 112.711 99.7323 113.517 100.604 114.188C102.376 115.556 104.557 116.299 106.802 116.298ZM21.68 127.226C21.68 133.176 16.8268 138 10.84 138C4.85324 138 0 133.176 0 127.226C0 121.276 4.85324 116.452 10.84 116.452C16.8268 116.452 21.68 121.276 21.68 127.226ZM128.16 21.548C134.147 21.548 139 16.7243 139 10.774C139 4.82369 134.147 0 128.16 0C122.173 0 117.32 4.82369 117.32 10.774C117.32 16.7243 122.173 21.548 128.16 21.548ZM139 127.226C139 133.176 134.147 138 128.16 138C122.173 138 117.32 133.176 117.32 127.226C117.32 121.276 122.173 116.452 128.16 116.452C134.147 116.452 139 121.276 139 127.226ZM60.6348 65.9459C62.3127 61.92 66.2654 59.2951 70.6497 59.2952C76.6335 59.3021 81.4825 64.1217 81.4893 70.069C81.4893 74.4267 78.8483 78.3552 74.7977 80.0228C70.747 81.6904 66.0846 80.7686 62.9845 77.6872C59.8843 74.6059 58.9569 69.9718 60.6348 65.9459Z" fill="black"/>
<path fillRule="evenodd" clipRule="evenodd" d="M10.84 21.548C16.8268 21.548 21.68 16.7243 21.68 10.774C21.68 4.82369 16.8268 0 10.84 0C4.85324 0 0 4.82369 0 10.774C0 16.7243 4.85324 21.548 10.84 21.548ZM106.802 116.298H106.827V116.298C109.529 116.3 112.12 115.235 114.03 113.336C115.941 111.438 117.013 108.862 117.01 106.177V106.152C117.012 103.921 116.265 101.753 114.887 99.9913C114.212 99.1252 113.402 98.3725 112.487 97.7616C111.547 97.1338 110.511 96.6618 109.419 96.364C97.035 92.9656 88.4579 81.768 88.4579 68.9991C88.4579 56.2303 97.035 45.0327 109.419 41.6343C110.511 41.3366 111.547 40.8647 112.487 40.2369C113.402 39.626 114.212 38.8733 114.887 38.0073C116.265 36.2457 117.012 34.078 117.01 31.8471V31.8216C117.013 29.1366 115.941 26.5609 114.031 24.6623C112.12 22.7638 109.529 21.6983 106.827 21.7007H106.802C104.557 21.6994 102.376 22.4419 100.604 23.8108C99.7328 24.4817 98.9754 25.2872 98.3608 26.1966C97.7291 27.1307 97.2542 28.1605 96.9546 29.2459C93.5195 41.5435 82.2629 50.0609 69.422 50.0788C56.582 50.0582 45.3268 41.5419 41.8894 29.2459C41.5899 28.1605 41.1151 27.1307 40.4834 26.1966C39.8688 25.2872 39.1114 24.4817 38.2401 23.8108C36.4677 22.4419 34.2868 21.6994 32.0422 21.7007H32.0165C29.3151 21.6982 26.7236 22.7637 24.8134 24.6622C22.9032 26.5607 21.8312 29.1364 21.8336 31.8213V31.8469C21.8323 34.0778 22.5794 36.2454 23.9566 38.007C24.6316 38.873 25.4421 39.6258 26.357 40.2367C27.2969 40.8645 28.333 41.3364 29.4251 41.634C41.7981 45.0482 50.3678 56.2363 50.3857 68.9991C50.3649 81.7608 41.7964 92.9472 29.4251 96.3636C28.333 96.6613 27.2968 97.1333 26.357 97.7612C25.4421 98.372 24.6317 99.1248 23.9566 99.9908C22.5793 101.752 21.8322 103.92 21.8336 106.151V106.176C21.8311 108.861 22.9031 111.437 24.8132 113.336C26.7234 115.234 29.3149 116.3 32.0163 116.298H32.042C34.2865 116.299 36.4673 115.556 38.2397 114.188C39.111 113.517 39.8684 112.711 40.483 111.801C41.1146 110.867 41.5894 109.838 41.8889 108.752C45.3085 96.4442 56.5746 87.9197 69.4215 87.9197C82.2684 87.9197 93.5346 96.4442 96.9541 108.752C97.2537 109.838 97.7286 110.867 98.3603 111.801C98.9749 112.711 99.7323 113.517 100.604 114.188C102.376 115.556 104.557 116.299 106.802 116.298ZM21.68 127.226C21.68 133.176 16.8268 138 10.84 138C4.85324 138 0 133.176 0 127.226C0 121.276 4.85324 116.452 10.84 116.452C16.8268 116.452 21.68 121.276 21.68 127.226ZM128.16 21.548C134.147 21.548 139 16.7243 139 10.774C139 4.82369 134.147 0 128.16 0C122.173 0 117.32 4.82369 117.32 10.774C117.32 16.7243 122.173 21.548 128.16 21.548ZM139 127.226C139 133.176 134.147 138 128.16 138C122.173 138 117.32 133.176 117.32 127.226C117.32 121.276 122.173 116.452 128.16 116.452C134.147 116.452 139 121.276 139 127.226ZM60.6348 65.9459C62.3127 61.92 66.2654 59.2951 70.6497 59.2952C76.6335 59.3021 81.4825 64.1217 81.4893 70.069C81.4893 74.4267 78.8483 78.3552 74.7977 80.0228C70.747 81.6904 66.0846 80.7686 62.9845 77.6872C59.8843 74.6059 58.9569 69.9718 60.6348 65.9459Z" fill="url(#paint0_linear_1_133)"/>
<defs>
<linearGradient id="paint0_linear_1_133" x1="-35.6026" y1="0" x2="-35.6026" y2="138" gradientUnits="userSpaceOnUse">
<stop stopColor="white"/>
</linearGradient>
</defs>
</svg>
